<svg xmlns="http://www.w3.org/2000/svg" viewBox="0 0 149.49 149.49"><defs><style>.cls-1{fill:none;stroke:#231f20;stroke-miterlimit:10;stroke-width:7px;}</style></defs><title>howto1</title><g id="Layer_2" data-name="Layer 2"><g id="Layer_1-2" data-name="Layer 1"><path class="cls-1" d="M104,55.74c.49-2.12.93-4.2,2.59-5.86l34.62-34.62a3.63,3.63,0,0,1,1.69-.79l2.85-2.85c1.1-1.1-1.75-4.4-2.43-5.15a3.92,3.92,0,0,0-.29-.29c-.75-.68-4.05-3.53-5.15-2.43L135,6.6a3.63,3.63,0,0,1-.79,1.69L99.6,42.92c-1.66,1.66-3.74,2.1-5.86,2.59a13,13,0,0,1-7.94-1.32,1,1,0,0,0-1.2.11L4.06,124.84a2.22,2.22,0,0,0-.32,2.52c.86,1.89,3,5.39,8,10.4s8.52,7.11,10.4,8a2.22,2.22,0,0,0,2.52-.32l80.54-80.54a1,1,0,0,0,.11-1.2A13,13,0,0,1,104,55.74Z"/><circle class="cls-1" cx="88.8" cy="121.35" r="10.8"/></g></g></svg>