<svg xmlns="http://www.w3.org/2000/svg" viewBox="0 0 200.82 59.93"><defs><style>.cls-1{fill:none;stroke:#231f20;stroke-linecap:round;stroke-linejoin:round;stroke-width:7px;}.cls-2{fill:#231f20;}</style></defs><title>howto3</title><g id="Layer_2" data-name="Layer 2"><g id="Layer_1-2" data-name="Layer 1"><rect class="cls-1" x="3.5" y="3.5" width="193.82" height="52.93"/><path class="cls-2" d="M41.65,23.62A1.7,1.7,0,0,0,41,25a1.56,1.56,0,0,0,.77,1.36,14.12,14.12,0,0,0,3.57,1.2,10.06,10.06,0,0,1,4.35,2.07,5.11,5.11,0,0,1,1.55,4,5.31,5.31,0,0,1-2,4.29,7.9,7.9,0,0,1-5.22,1.65A12,12,0,0,1,36,36.44a.48.48,0,0,1-.05-.66l2-2.48a.47.47,0,0,1,.67-.06q3,2.47,5.51,2.47a3.09,3.09,0,0,0,1.9-.52,1.67,1.67,0,0,0,.69-1.41A1.64,1.64,0,0,0,46,32.37a9.56,9.56,0,0,0-2.9-1.06,12.59,12.59,0,0,1-5-2.12,5,5,0,0,1-1.59-4.11,5.09,5.09,0,0,1,2-4.32,8.1,8.1,0,0,1,5-1.52,12.08,12.08,0,0,1,3.94.67,10.7,10.7,0,0,1,3.09,1.63.48.48,0,0,1,.09.65l-1.7,2.45a.47.47,0,0,1-.66.11,8.47,8.47,0,0,0-4.9-1.66A2.65,2.65,0,0,0,41.65,23.62Z"/><path class="cls-2" d="M64.14,34.28a3.59,3.59,0,0,0,3,1.36A3.55,3.55,0,0,0,70,34.28a5.84,5.84,0,0,0,1.08-3.73V20.17a.47.47,0,0,1,.47-.47H75a.47.47,0,0,1,.47.47V30.7a8.74,8.74,0,0,1-2.36,6.57,9.12,9.12,0,0,1-12.11,0,8.71,8.71,0,0,1-2.38-6.55V20.17a.47.47,0,0,1,.47-.47h3.45a.47.47,0,0,1,.47.47V30.56A5.79,5.79,0,0,0,64.14,34.28Z"/><path class="cls-2" d="M92.62,39.36H84.48a.47.47,0,0,1-.47-.47V20.17a.47.47,0,0,1,.47-.47h7.18a11,11,0,0,1,3.45.48,5,5,0,0,1,2.18,1.29,5.09,5.09,0,0,1,1.32,3.43,4,4,0,0,1-1.49,3.43,5.39,5.39,0,0,1-.7.49l-.7.32a5.16,5.16,0,0,1,2.91,1.65,4.59,4.59,0,0,1,1.08,3.11,5.29,5.29,0,0,1-1.41,3.63Q96.67,39.36,92.62,39.36ZM88.4,27.19a.47.47,0,0,0,.47.47h1.61a7.05,7.05,0,0,0,2.71-.39,1.66,1.66,0,0,0,.89-1.7,1.76,1.76,0,0,0-.82-1.73,6.47,6.47,0,0,0-2.76-.42H88.87a.47.47,0,0,0-.47.47Zm0,8a.47.47,0,0,0,.47.47h2.54a6.65,6.65,0,0,0,2.83-.46,1.84,1.84,0,0,0,.94-1.83,1.76,1.76,0,0,0-1-1.8A8.57,8.57,0,0,0,91,31.12H88.87a.47.47,0,0,0-.47.47Z"/><path class="cls-2" d="M124,28.79l-4.29,8.68a.47.47,0,0,1-.42.26h-2a.47.47,0,0,1-.42-.26l-4.26-8.67a.47.47,0,0,0-.89.21v9.88a.47.47,0,0,1-.47.47H107.8a.47.47,0,0,1-.47-.47V20.17a.47.47,0,0,1,.47-.47H113a.47.47,0,0,1,.43.27l4.51,9.62a.47.47,0,0,0,.85,0L123.3,20a.47.47,0,0,1,.43-.27h5.14a.47.47,0,0,1,.47.47V38.89a.47.47,0,0,1-.47.47h-3.45a.47.47,0,0,1-.47-.47V29A.47.47,0,0,0,124,28.79Z"/><path class="cls-2" d="M138.58,19.7H142a.47.47,0,0,1,.47.47V38.89a.47.47,0,0,1-.47.47h-3.45a.47.47,0,0,1-.47-.47V20.17A.47.47,0,0,1,138.58,19.7Z"/><path class="cls-2" d="M159.6,24V38.89a.47.47,0,0,1-.47.47h-3.45a.47.47,0,0,1-.47-.47V24a.47.47,0,0,0-.47-.47h-4.63a.47.47,0,0,1-.47-.47V20.17a.47.47,0,0,1,.47-.47H164.7a.47.47,0,0,1,.47.47V23a.47.47,0,0,1-.47.47h-4.63A.47.47,0,0,0,159.6,24Z"/></g></g></svg>