<svg xmlns="http://www.w3.org/2000/svg" viewBox="0 0 32.21 250.82"><defs><style>.cls-1{fill:#34485C;}</style></defs><title>bat size</title><g id="Layer_2" data-name="Layer 2"><g id="Layer_1-2" data-name="Layer 1"><path class="cls-1" d="M24.11,84.54c-1.27-2.48-2.56-4.9-2.56-8.06V10.42A5.56,5.56,0,0,1,22.26,8V2.6C22.26.51,17.45.08,16.33,0h-.46C14.76.08,9.95.51,9.95,2.6V8a5.56,5.56,0,0,1,.71,2.37V76.49c0,3.16-1.28,5.57-2.56,8.06A15,15,0,0,1,.85,90.86,1.37,1.37,0,0,0,0,92.11V245.79a3,3,0,0,0,1.73,2.71c2.15,1,6.54,2.32,14.38,2.32s12.23-1.34,14.38-2.32a3,3,0,0,0,1.73-2.71V92.11a1.37,1.37,0,0,0-.85-1.25A15,15,0,0,1,24.11,84.54Z"/></g></g></svg>