<svg xmlns="http://www.w3.org/2000/svg" viewBox="0 0 143.63 239.04"><defs><style>.cls-1{fill:#FFA54B;fill-rule:evenodd;}</style></defs><title>bird</title><g id="Layer_2" data-name="Layer 2"><g id="Layer_1-2" data-name="Layer 1"><path class="cls-1" d="M66.3,160.33a32.43,32.43,0,1,1-32.43,32.43A32.43,32.43,0,0,1,66.3,160.33ZM31.85,34.23c6.74-1.35,14.49-1.53,21-1.54l1.48-4.35c.36-1.07.73-2.11,1.11-3.11a11.4,11.4,0,0,0,10.87,8.4A11.55,11.55,0,0,0,77.67,21.89a11.92,11.92,0,0,0-3.3-8.28c12.48.62,25.2,5.1,37.32,11.39V9.8C98.77,3.9,85.12,0,71.44,0c-15.74,0-25,7.18-29.12,21-8.24.52-19.5-.13-31.42,6.12A51,51,0,0,0,0,34.87a41.48,41.48,0,0,0,11.53,8.19c7.45,3.52,14.83,4.19,21.53,5,6.89.79,12.7,1.45,15.83,6,4.64,6.82,4.2,20.61,3.87,31.08L52.61,91c-.13,11.59.86,23,8.2,36.16,6.83,12.27,19.17,25.92,41.42,42.49l6.58,54.8a16,16,0,0,0,6.08,10.67A18.16,18.16,0,0,0,127.13,239a17.91,17.91,0,0,0,11.7-5.1,15.78,15.78,0,0,0,4.8-11.22V117.54h0c.07-2.54.49-36.05-21.83-64.28l-3.25-4.11L73.32,65.41V94c0,7.84.31,15.33,6.52,25.4,5.71,9.27,16.53,20.42,37.3,35.73l6.71,4.95V142.85c-17.75-13.28-26.9-22.66-31.53-30.17C88,105.67,87.78,100,87.78,94V74.64l25.5-9.17c17,24.55,15.92,51.83,15.92,51.91l0,.16V222.69a2.74,2.74,0,0,1-.79,2,3.12,3.12,0,0,1-2,.87,3.17,3.17,0,0,1-2.13-.66,2.78,2.78,0,0,1-1.06-1.84l-7.26-60.42-2.4-1.76c-21.9-16-33.67-28.73-39.87-39.88-5.93-10.66-6.73-20.12-6.62-29.82l.15-5.64c.39-12.25.91-28.38-6.12-38.7-6.83-10-15.69-11-26.22-12.24l-3-.35ZM66.34,20.09a2.36,2.36,0,1,1-2.54,2.35,2.45,2.45,0,0,1,2.54-2.35ZM66.3,175a17.81,17.81,0,1,1-17.81,17.81A17.81,17.81,0,0,1,66.3,175Z"/></g></g></svg>