<svg xmlns="http://www.w3.org/2000/svg" viewBox="0 0 407.01 244.57"><defs><style>.logoclass-one{fill-rule:evenodd; fill: #008058;}</style></defs><title>kooka_logo_2</title><g id="Layer_2" data-name="Layer 2"><g id="Layer_1-2" data-name="Layer 1"><path class="logoclass-one" d="M199.42,118.92A24.05,24.05,0,1,1,175.36,143a24.05,24.05,0,0,1,24.05-24.05ZM173.86,25.39a83.17,83.17,0,0,1,15.59-1.14l1.1-3.23c.27-.79.54-1.56.83-2.31a8.46,8.46,0,0,0,8.06,6.23,8.56,8.56,0,0,0,8.41-8.71,8.84,8.84,0,0,0-2.45-6.14c9.26.46,18.69,3.79,27.68,8.45V7.27C223.5,2.89,213.38,0,203.23,0c-11.68,0-18.56,5.33-21.6,15.57-6.11.38-14.46-.1-23.3,4.54a37.84,37.84,0,0,0-8.09,5.75,30.77,30.77,0,0,0,8.56,6.07c5.53,2.61,11,3.11,16,3.68s9.42,1.08,11.74,4.49c3.44,5.06,3.12,15.28,2.87,23.05l-.11,4.38c-.1,8.6.64,17,6.09,26.82,5.06,9.1,14.22,19.22,30.72,31.52l4.88,40.65a11.89,11.89,0,0,0,4.51,7.92,13.47,13.47,0,0,0,9.08,2.84,13.28,13.28,0,0,0,8.68-3.78,11.7,11.7,0,0,0,3.56-8.32v-78h0c0-1.88.37-26.74-16.19-47.67l-2.41-3L204.63,48.51v21.2c0,5.82.23,11.37,4.83,18.84,4.24,6.87,12.26,15.15,27.66,26.5l5,3.67V106c-13.17-9.85-20-16.81-23.38-22.38-3.2-5.2-3.37-9.42-3.37-13.86V55.36l18.92-6.8c12.59,18.21,11.81,38.44,11.81,38.5l0,.12v78a2,2,0,0,1-.59,1.46,2.32,2.32,0,0,1-1.52.64,2.35,2.35,0,0,1-1.58-.49,2.06,2.06,0,0,1-.78-1.37L236.2,120.6l-1.78-1.3c-16.24-11.88-25-21.31-29.57-29.58-4.4-7.91-5-14.93-4.91-22.11l.11-4.18c.29-9.09.67-21-4.54-28.7-5.06-7.43-11.64-8.18-19.45-9.08l-2.2-.26ZM199.44,14.9a1.75,1.75,0,1,1-1.88,1.74,1.82,1.82,0,0,1,1.88-1.74Zm0,114.86A13.21,13.21,0,1,1,186.21,143a13.21,13.21,0,0,1,13.21-13.21Z"/><path class="logoclass-one" d="M233.63,208.8c0-3.61-2.67-5.65-7.5-5.65H215.8v11.3h10.33C231,214.45,233.63,212.41,233.63,208.8Zm-11.5.28h7.8c.39,0,.78,0,1.15,0-.18,2.47-2.51,3-5,3h-4Z"/><path class="logoclass-one" d="M102.4,203.16c-18.17,0-18.16,30.76,0,30.76S120.56,203.16,102.4,203.16Zm0,28.38a10.51,10.51,0,0,1-5-1.17c-5-7.49-2.05-21.28,8.75-21.28a10.48,10.48,0,0,1,5,1.21C116.11,217.81,113.17,231.54,102.4,231.54Z"/><polygon class="logoclass-one" points="372.53 220.94 386.52 220.94 379.52 203.65 372.53 220.94"/><path class="logoclass-one" d="M390,200.23l-3.8-3.56H372.83l-13.17,32.56a13.34,13.34,0,0,0-3.16-5.94A11.12,11.12,0,0,0,362.88,213a10.67,10.67,0,0,0-3.41-8.19l-3.68-3.45c-3.69-3.52-9.92-4.73-15.69-4.73H321.88V205L318,201.4c-3.69-3.52-9.92-4.73-15.69-4.73H284.09v1.09l0,0h0l-.07-.07-.07-.07-.08-.07-.07-.07-.07-.07,0,0,0,0-.07-.07-.07-.07-.07-.07-.07-.07-.07-.07-.07-.07-.08-.07-.07-.07-.07-.07H271.5v28.67c0,3.24-4.51,5-7.42,5a10.4,10.4,0,0,1-3.55-.68,3.31,3.31,0,0,1-.08-.72V200.23l-3.8-3.56H245.23v9a10.1,10.1,0,0,0-1-1.11L240.37,201c-3-2.88-7.89-4.1-12.69-4.28l-1.5,0H206.9v31l-11.11-27.49-3.8-3.56H178.6L164.07,232.6,153.19,219l20-18.76-3.8-3.56H153.25L140.07,209v-8.79l-3.8-3.56H124.85v11.48a21.06,21.06,0,0,0-2.42-2.76l-3.9-3.65c-3.8-3.58-9.18-5.89-16.13-5.89-11.28,0-18.41,6.09-21.41,13.79a20.84,20.84,0,0,0-3.45-4.28l-3.78-3.54c-3.81-3.62-9.21-6-16.21-6a24.84,24.84,0,0,0-11.21,2.47l-1.75-1.64H28.41L15.23,209v-8.79l-3.8-3.56H0v42l3.8,3.56H15.23v-11l4.4-4.13,9.24,11.55,3.8,3.56H47l-6.34-7.93,3.34,3.17,1,1,.54.5h0c3.79,3.41,9.06,5.61,15.82,5.61,11.29,0,18.4-6.1,21.39-13.82a20.92,20.92,0,0,0,3.6,4.43l3.85,3.61c3.8,3.52,9.14,5.78,16,5.78,8.68,0,14.88-3.62,18.65-8.8v2.92l3.8,3.56h11.43v-11l4.41-4.13,9.24,11.55,3.8,3.56h20.1l4.44-11h11.7l3,7.42,3.8,3.56h30.83c4.36,0,7.4-.34,11.23-2.28a12.54,12.54,0,0,0,5.92-5.75,16.33,16.33,0,0,0,1.42,1.49l3.72,3.48a21.1,21.1,0,0,0,14.2,5.38c6.41,0,12.76-2.9,16.21-7.69v1.81l3.8,3.56h11.43V227.09H304c.63,0,1.23,0,1.79.06.84,3.65,1.4,6.55,3.19,10.17l.68,1.38,3.8,3.56h23.69V227.09h4.64c.63,0,1.23,0,1.79.06.84,3.65,1.4,6.55,3.19,10.17l.68,1.38,3.8,3.56h20.65l4.44-11H388l3,7.42,3.8,3.56H407ZM30.14,236.33,16.65,219.47,8.9,226.74v9.59H2.53V199H8.9v19.26L29.46,199h9L21.2,215.21,38.1,236.33ZM28.34,219l6.87-6.43a24.14,24.14,0,0,0,3.13,18.93Zm29.2,19.65c-27.38,0-27.39-40.42,0-40.42S84.92,238.64,57.54,238.64Zm44.86,0c-27.38,0-27.39-40.42,0-40.42S129.78,238.64,102.4,238.64ZM155,236.33,141.5,219.47l-7.75,7.26v9.59h-6.37V199h6.37v19.26L154.3,199h9L146,215.21l16.9,21.11Zm43.52,0-4.44-11H176.51l-4.44,11h-6.81L180.34,199h9.89l15.08,37.28Zm39.11-2c-2.44,1.23-4.5,2-10,2H209.43V199h16.7l1.45,0c8.61.33,13.34,3.7,13.34,9.42,0,4-2.27,6.8-6.54,8.28C244.46,219.15,246.31,229.94,237.62,234.34Zm7.61-13.17h0l0,0,0,0,0,0,0,0h0l0,0,0,0h0l0,0,0,0h0l0,0h0l0,0,0,0h0l0,0,0,0h0l0,0,0,0,0,0h-.15l0,0h-.12l0,0h-.07l0,0h-.27l0,0h0l0,0L244,220l-.09-.08-.06-.06a10.63,10.63,0,0,0,1.4-1.52Zm35.16,4.18c0,7.31-7.34,13.29-16.32,13.29s-16.32-6-16.32-13.29V199h6.36v26.3c0,4.65,5.54,7.34,10,7.34s10-2.69,10-7.34V199h6.36Zm30.84,11a41.26,41.26,0,0,1-3.2-10.48c-.9-3.83-3.82-4.68-7.87-4.68H293v15.16h-6.37V199H302.3c10.6,0,16.45,3.77,16.45,10.44,0,5.16-3.51,8.59-10,9.87h0c7.12,1.33,6.83,7.91,8.7,13.11a31.71,31.71,0,0,0,1.69,3.86Zm10.64-7.06a13.35,13.35,0,0,0-3.17-6,13.37,13.37,0,0,0,3.17-2.29ZM349,236.33a41.23,41.23,0,0,1-3.2-10.48c-.9-3.83-3.82-4.68-7.87-4.68h-7.18v15.16h-6.37V199H340.1c10.6,0,16.45,3.77,16.45,10.44,0,5.16-3.51,8.59-10,9.87h0c7.12,1.33,6.83,7.91,8.7,13.11a31.73,31.73,0,0,0,1.69,3.86Zm43.71,0-4.44-11H370.75l-4.44,11H359.5L374.58,199h9.89l15.08,37.28Z"/><path class="logoclass-one" d="M57.54,203.16c-18.17,0-18.16,30.76,0,30.76S75.7,203.16,57.54,203.16Zm0,28.38a10.51,10.51,0,0,1-5-1.17c-5-7.49-2.05-21.28,8.75-21.28a10.48,10.48,0,0,1,5,1.21C71.25,217.81,68.31,231.54,57.54,231.54Z"/><polygon class="logoclass-one" points="178.3 220.94 192.28 220.94 185.29 203.65 178.3 220.94"/><path class="logoclass-one" d="M311.4,210.28c.1-3.53-2.33-7.13-8.49-7.13H293v13.91h9.32C308.27,217.06,311.3,213.7,311.4,210.28Zm-9.1,4.41h-3v-5.61h7.39a10.1,10.1,0,0,1,2.11.21,5.25,5.25,0,0,1,.05.93C308.78,213.44,305.26,214.69,302.3,214.69Z"/><path class="logoclass-one" d="M349.19,210.28c.1-3.53-2.33-7.13-8.49-7.13h-9.92v13.91h9.32C346.06,217.06,349.09,213.7,349.19,210.28Zm-9.1,4.41h-3v-5.61h7.39a10.1,10.1,0,0,1,2.11.21,5.25,5.25,0,0,1,.05.93C346.57,213.44,343.06,214.69,340.1,214.69Z"/><path class="logoclass-one" d="M227.59,219.1H215.8v12.58h10.85c5.84,0,8.58-3,8.63-6.14S232.77,219.14,227.59,219.1Zm-.94,10.21h-4.52V225h9.26a7.62,7.62,0,0,1,1.35.12c0,.12,0,.24,0,.36C232.7,228.44,229.2,229.31,226.65,229.31Z"/></g></g></svg>